<svg xmlns="http://www.w3.org/2000/svg" viewBox="0 0 100 100" preserveAspectRatio="xMidYMid" style="shape-rendering: auto; display: block; background: transparent;" width="100%" height="100%" xmlns:xlink="http://www.w3.org/1999/xlink"><g><g transform="rotate(0 50 50)">
  <rect fill="#673ab7" height="14" width="14" ry="7" rx="7" y="3" x="43">
    <animate repeatCount="indefinite" begin="-0.6070640176600441s" dur="0.6622516556291391s" keyTimes="0;1" values="1;0" attributeName="opacity"></animate>
  </rect>
</g><g transform="rotate(30 50 50)">
  <rect fill="#673ab7" height="14" width="14" ry="7" rx="7" y="3" x="43">
    <animate repeatCount="indefinite" begin="-0.5518763796909492s" dur="0.6622516556291391s" keyTimes="0;1" values="1;0" attributeName="opacity"></animate>
  </rect>
</g><g transform="rotate(60 50 50)">
  <rect fill="#673ab7" height="14" width="14" ry="7" rx="7" y="3" x="43">
    <animate repeatCount="indefinite" begin="-0.4966887417218543s" dur="0.6622516556291391s" keyTimes="0;1" values="1;0" attributeName="opacity"></animate>
  </rect>
</g><g transform="rotate(90 50 50)">
  <rect fill="#673ab7" height="14" width="14" ry="7" rx="7" y="3" x="43">
    <animate repeatCount="indefinite" begin="-0.44150110375275936s" dur="0.6622516556291391s" keyTimes="0;1" values="1;0" attributeName="opacity"></animate>
  </rect>
</g><g transform="rotate(120 50 50)">
  <rect fill="#673ab7" height="14" width="14" ry="7" rx="7" y="3" x="43">
    <animate repeatCount="indefinite" begin="-0.38631346578366443s" dur="0.6622516556291391s" keyTimes="0;1" values="1;0" attributeName="opacity"></animate>
  </rect>
</g><g transform="rotate(150 50 50)">
  <rect fill="#673ab7" height="14" width="14" ry="7" rx="7" y="3" x="43">
    <animate repeatCount="indefinite" begin="-0.3311258278145695s" dur="0.6622516556291391s" keyTimes="0;1" values="1;0" attributeName="opacity"></animate>
  </rect>
</g><g transform="rotate(180 50 50)">
  <rect fill="#673ab7" height="14" width="14" ry="7" rx="7" y="3" x="43">
    <animate repeatCount="indefinite" begin="-0.2759381898454746s" dur="0.6622516556291391s" keyTimes="0;1" values="1;0" attributeName="opacity"></animate>
  </rect>
</g><g transform="rotate(210 50 50)">
  <rect fill="#673ab7" height="14" width="14" ry="7" rx="7" y="3" x="43">
    <animate repeatCount="indefinite" begin="-0.22075055187637968s" dur="0.6622516556291391s" keyTimes="0;1" values="1;0" attributeName="opacity"></animate>
  </rect>
</g><g transform="rotate(240 50 50)">
  <rect fill="#673ab7" height="14" width="14" ry="7" rx="7" y="3" x="43">
    <animate repeatCount="indefinite" begin="-0.16556291390728475s" dur="0.6622516556291391s" keyTimes="0;1" values="1;0" attributeName="opacity"></animate>
  </rect>
</g><g transform="rotate(270 50 50)">
  <rect fill="#673ab7" height="14" width="14" ry="7" rx="7" y="3" x="43">
    <animate repeatCount="indefinite" begin="-0.11037527593818984s" dur="0.6622516556291391s" keyTimes="0;1" values="1;0" attributeName="opacity"></animate>
  </rect>
</g><g transform="rotate(300 50 50)">
  <rect fill="#673ab7" height="14" width="14" ry="7" rx="7" y="3" x="43">
    <animate repeatCount="indefinite" begin="-0.05518763796909492s" dur="0.6622516556291391s" keyTimes="0;1" values="1;0" attributeName="opacity"></animate>
  </rect>
</g><g transform="rotate(330 50 50)">
  <rect fill="#673ab7" height="14" width="14" ry="7" rx="7" y="3" x="43">
    <animate repeatCount="indefinite" begin="0s" dur="0.6622516556291391s" keyTimes="0;1" values="1;0" attributeName="opacity"></animate>
  </rect>
</g><g></g></g><!-- [ldio] generated by https://loading.io --></svg>